<svg width="44" height="53" viewBox="0 0 44 53" fill="none" xmlns="http://www.w3.org/2000/svg">
<g filter="url(#filter0_d_526_1445)">
<path d="M36.1422 34.6484L23.4245 47.5543C22.6412 48.3493 21.3588 48.3493 20.5754 47.5543L7.85786 34.6484C0.0473806 26.7219 0.0473806 13.871 7.85786 5.94471C15.6683 -1.98157 28.3315 -1.98157 36.1422 5.94471C43.9526 13.871 43.9526 26.7219 36.1422 34.6484ZM22 24.8068C24.4546 24.8068 26.4444 22.7875 26.4444 20.2965C26.4444 17.8055 24.4546 15.7862 22 15.7862C19.5453 15.7862 17.5555 17.8055 17.5555 20.2965C17.5555 22.7875 19.5453 24.8068 22 24.8068Z" fill="white"/>
<path d="M22 24.8068C24.4546 24.8068 26.4444 22.7875 26.4444 20.2965C26.4444 17.8055 24.4546 15.7862 22 15.7862C19.5453 15.7862 17.5555 17.8055 17.5555 20.2965C17.5555 22.7875 19.5453 24.8068 22 24.8068Z" fill="white"/>
</g>
<circle cx="22" cy="20" r="15" fill="#CA0014"/>
<path d="M20.0039 30C18.7507 29.8588 17.5557 29.4512 16.5229 28.8124C15.4902 28.1737 14.651 27.3232 14.0784 26.335C13.1956 24.8921 12.7499 22.568 13.1449 20.9675C13.5399 19.367 14.4051 17.3482 15.8891 16.3548L16.9375 19.9993C16.9375 19.9993 17.2486 13.891 23.7148 12C23.3404 12.9671 23.2493 14.0013 23.4499 15.0075C23.6506 16.0136 24.1365 16.9592 24.8629 17.7574C27.3739 20.4607 26.8035 21.8448 26.8035 21.8448C26.8035 21.8448 28.3442 20.8051 28.2108 19.7653C28.2108 19.7653 31.8625 27.3162 23.4556 29.8311C23.4556 29.8311 25.3888 27.2318 23.937 25.2823C22.7297 23.6448 21.2557 22.0332 21.1372 20.9675C20.5733 22.4971 19.8903 23.9909 19.0929 25.4383C18.6947 26.1891 18.5686 27.029 18.7315 27.8447C18.8944 28.6604 19.3385 29.4127 20.0039 30Z" fill="white"/>
<path d="M15 10C13.2997 11.1832 12.3282 13.9934 13.5426 14.7329C15.4858 15.9161 14.2713 12.958 15 10Z" fill="white"/>
<path d="M28.8763 13.1615C28.759 15.8897 27.5061 17.5658 28.9039 17.7146C31.1404 17.9528 30.3794 14.479 28.8763 13.1615Z" fill="white"/>
<defs>
<filter id="filter0_d_526_1445" x="0" y="0" width="44" height="52.1506" filterUnits="userSpaceOnUse" color-interpolation-filters="sRGB">
<feFlood flood-opacity="0" result="BackgroundImageFix"/>
<feColorMatrix in="SourceAlpha" type="matrix" values="0 0 0 0 0 0 0 0 0 0 0 0 0 0 0 0 0 0 127 0" result="hardAlpha"/>
<feOffset dy="2"/>
<feGaussianBlur stdDeviation="1"/>
<feComposite in2="hardAlpha" operator="out"/>
<feColorMatrix type="matrix" values="0 0 0 0 0 0 0 0 0 0 0 0 0 0 0 0 0 0 0.25 0"/>
<feBlend mode="normal" in2="BackgroundImageFix" result="effect1_dropShadow_526_1445"/>
<feBlend mode="normal" in="SourceGraphic" in2="effect1_dropShadow_526_1445" result="shape"/>
</filter>
</defs>
</svg>
