<svg width="44" height="53" viewBox="0 0 44 53" fill="none" xmlns="http://www.w3.org/2000/svg">
  <path d="M36 34.5 23.4 47.5a2 2 0 0 1-2.8 0L8 34.5a20 20 0 1 1 28 0Z" fill="white" stroke="#D1D5DB" stroke-width="1"/>
  <circle cx="22" cy="20" r="15" fill="#11C208"/>
  <g stroke="white" stroke-width="2" stroke-linecap="round" stroke-linejoin="round">
    <path d="M15 13a10 10 0 0 1 14 0M18 16a6 6 0 0 1 8 0"/>
    <rect x="16" y="20" width="12" height="10" rx="2"/>
    <path d="M20 23h4v4h-4zM13 23h3m-3 4h3m12-4h3m-3 4h3M20 30v2m4-2v2"/>
  </g>
</svg>
