<svg width="44" height="53" viewBox="0 0 44 53" fill="none" xmlns="http://www.w3.org/2000/svg">
<g filter="url(#filter0_d_526_1454)">
<path d="M36.1422 34.6484L23.4245 47.5543C22.6412 48.3493 21.3588 48.3493 20.5754 47.5543L7.85786 34.6484C0.0473806 26.7219 0.0473806 13.871 7.85786 5.94471C15.6683 -1.98157 28.3315 -1.98157 36.1422 5.94471C43.9526 13.871 43.9526 26.7219 36.1422 34.6484ZM22 24.8068C24.4546 24.8068 26.4444 22.7875 26.4444 20.2965C26.4444 17.8055 24.4546 15.7862 22 15.7862C19.5453 15.7862 17.5555 17.8055 17.5555 20.2965C17.5555 22.7875 19.5453 24.8068 22 24.8068Z" fill="white"/>
<path d="M22 24.8068C24.4546 24.8068 26.4444 22.7875 26.4444 20.2965C26.4444 17.8055 24.4546 15.7862 22 15.7862C19.5453 15.7862 17.5555 17.8055 17.5555 20.2965C17.5555 22.7875 19.5453 24.8068 22 24.8068Z" fill="white"/>
</g>
<circle cx="22" cy="20" r="15" fill="#FDC200"/>
<path d="M16.5264 29.5264C18.1832 29.5264 19.5264 28.1832 19.5264 26.5264C19.5264 24.8695 18.1832 23.5264 16.5264 23.5264C14.8695 23.5264 13.5264 24.8695 13.5264 26.5264C13.5264 28.1832 14.8695 29.5264 16.5264 29.5264Z" fill="white"/>
<path d="M16.5298 11.5264C17.0593 11.5264 17.5672 11.7406 17.9416 12.1218C18.316 12.5031 18.5264 13.0202 18.5264 13.5594V26.0513C18.5264 26.1773 18.4772 26.2981 18.3897 26.3872C18.3022 26.4763 18.1836 26.5264 18.0598 26.5264H14.9929C14.8692 26.5264 14.7505 26.4763 14.663 26.3872C14.5755 26.2981 14.5264 26.1773 14.5264 26.0513V13.5594C14.5264 13.0202 14.7367 12.5031 15.1111 12.1218C15.4856 11.7406 15.9934 11.5264 16.5229 11.5264H16.5298Z" fill="white"/>
<rect x="15.5264" y="12.5264" width="2" height="13" rx="1" fill="white"/>
<rect x="15.5264" y="16.5264" width="2" height="10" rx="1" fill="#FDC200"/>
<path d="M16.5264 28.5264C17.6309 28.5264 18.5264 27.6309 18.5264 26.5264C18.5264 25.4218 17.6309 24.5264 16.5264 24.5264C15.4218 24.5264 14.5264 25.4218 14.5264 26.5264C14.5264 27.6309 15.4218 28.5264 16.5264 28.5264Z" fill="#FDC200"/>
<path d="M25.5264 14.2342C25.5264 15.5016 24.4087 16.5264 23.0264 16.5264C21.644 16.5264 20.5264 15.5016 20.5264 14.2342C20.5264 12.9668 23.0411 10.5264 23.0411 10.5264C23.0411 10.5264 25.5264 12.9668 25.5264 14.2342Z" fill="white"/>
<path d="M30.5264 18.2342C30.5264 19.5016 29.4087 20.5264 28.0264 20.5264C26.644 20.5264 25.5264 19.5016 25.5264 18.2342C25.5264 16.9668 28.0411 14.5264 28.0411 14.5264C28.0411 14.5264 30.5264 16.9668 30.5264 18.2342Z" fill="white"/>
<path d="M25.5264 22.2342C25.5264 23.5016 24.4087 24.5264 23.0264 24.5264C21.644 24.5264 20.5264 23.5016 20.5264 22.2342C20.5264 20.9668 23.0411 18.5264 23.0411 18.5264C23.0411 18.5264 25.5264 20.9668 25.5264 22.2342Z" fill="white"/>
<defs>
<filter id="filter0_d_526_1454" x="0" y="0" width="44" height="52.1506" filterUnits="userSpaceOnUse" color-interpolation-filters="sRGB">
<feFlood flood-opacity="0" result="BackgroundImageFix"/>
<feColorMatrix in="SourceAlpha" type="matrix" values="0 0 0 0 0 0 0 0 0 0 0 0 0 0 0 0 0 0 127 0" result="hardAlpha"/>
<feOffset dy="2"/>
<feGaussianBlur stdDeviation="1"/>
<feComposite in2="hardAlpha" operator="out"/>
<feColorMatrix type="matrix" values="0 0 0 0 0 0 0 0 0 0 0 0 0 0 0 0 0 0 0.25 0"/>
<feBlend mode="normal" in2="BackgroundImageFix" result="effect1_dropShadow_526_1454"/>
<feBlend mode="normal" in="SourceGraphic" in2="effect1_dropShadow_526_1454" result="shape"/>
</filter>
</defs>
</svg>
