<svg width="20" height="20" viewBox="0 0 20 20" fill="none" xmlns="http://www.w3.org/2000/svg">
<g clip-path="url(#clip0_565_1362)">
<path d="M8.53743 16.1698H2.22527C1.91736 16.1698 1.68643 16.0327 1.53248 15.7585C1.37852 15.4843 1.39563 15.2186 1.58379 14.9616L5.6123 9.12608H4.66291C4.34848 9.12608 4.11591 8.98896 3.96524 8.71477C3.81452 8.44058 3.83325 8.17493 4.02143 7.91786L9.35852 0.334312C9.43632 0.229428 9.53352 0.14751 9.65001 0.0885541C9.76666 0.0295978 9.8833 0.00012207 10 0.00012207C10.1166 0.00012207 10.2333 0.0295978 10.35 0.0885541C10.4665 0.14751 10.5636 0.229428 10.6415 0.334312L15.9786 7.91786C16.1667 8.17493 16.1854 8.44058 16.0348 8.71477C15.884 8.98896 15.6515 9.12608 15.3371 9.12608H14.4134L18.4162 14.9616C18.6043 15.2186 18.6215 15.4843 18.4675 15.7585C18.3136 16.0327 18.0826 16.1698 17.7747 16.1698H11.4882V19.2289C11.4882 19.4474 11.4155 19.6306 11.2701 19.7783C11.1247 19.9262 10.9449 20.0001 10.7308 20.0001H9.29489C9.08069 20.0001 8.90092 19.9262 8.75554 19.7783C8.6101 19.6306 8.53743 19.4474 8.53743 19.2289V16.1698Z" fill="#BBBFCF"/>
</g>
<defs>
<clipPath id="clip0_565_1362">
<rect width="20" height="20" fill="white"/>
</clipPath>
</defs>
</svg>
