<svg width="30" height="30" viewBox="0 0 30 30" fill="none" xmlns="http://www.w3.org/2000/svg">
    <g clip-path="url(#clip0_505_443)">
        <circle cx="15" cy="15" r="15" fill="#FDC200"/>
        <path d="M9.391 12.1295C9.52277 12.1301 9.65235 12.0958 9.7666 12.0301C9.88085 11.9644 9.97572 11.8698 10.0416 11.7556C10.4069 11.0974 10.9481 10.5537 11.6046 10.1852C11.69 10.1361 11.7649 10.0706 11.8251 9.99258C11.8852 9.91452 11.9294 9.82537 11.9551 9.73024C11.9808 9.6351 11.9875 9.53584 11.9748 9.43811C11.9622 9.34038 11.9304 9.24611 11.8813 9.16067C11.8322 9.07523 11.7667 9.0003 11.6886 8.94015C11.6106 8.88001 11.5214 8.83583 11.4263 8.81014C11.3312 8.78444 11.2319 8.77774 11.1342 8.79041C11.0365 8.80308 10.9422 8.83487 10.8567 8.88397C10.4174 9.131 10.0147 9.43807 9.66022 9.79632C9.30064 10.157 8.99125 10.5645 8.74039 11.0078C8.69094 11.0932 8.65887 11.1874 8.64602 11.2852C8.63317 11.383 8.6398 11.4824 8.66551 11.5776C8.69123 11.6729 8.73554 11.7621 8.79588 11.8401C8.85621 11.9181 8.93139 11.9835 9.01708 12.0323C9.13106 12.0969 9.26 12.1304 9.391 12.1295Z" fill="#8E5730"/>
        <path d="M10.8343 7.0519C10.8092 6.9556 10.7651 6.86527 10.7047 6.78622C10.6442 6.70717 10.5686 6.64098 10.4822 6.59153C10.3959 6.54208 10.3005 6.51036 10.2017 6.49824C10.1029 6.48612 10.0027 6.49384 9.90698 6.52094C8.98236 6.7824 8.14014 7.27642 7.4607 7.95587C6.78125 8.63532 6.28723 9.47753 6.02576 10.4022C5.99866 10.4979 5.99094 10.5981 6.00307 10.6969C6.01519 10.7957 6.0469 10.891 6.09635 10.9774C6.1458 11.0638 6.21199 11.1394 6.29104 11.1998C6.37009 11.2603 6.46042 11.3044 6.55672 11.3295C6.65235 11.363 6.7538 11.3768 6.85491 11.3699C6.95603 11.3631 7.05469 11.3357 7.14491 11.2896C7.23513 11.2434 7.31503 11.1794 7.37976 11.1014C7.44448 11.0234 7.49267 10.9331 7.52142 10.8359C7.7156 10.1576 8.07538 9.53831 8.56837 9.03364C9.06601 8.55722 9.67153 8.20828 10.3332 8.01659C10.4311 7.98866 10.5222 7.94104 10.601 7.87666C10.6798 7.81228 10.7447 7.7325 10.7916 7.64219C10.8385 7.55188 10.8665 7.45294 10.8738 7.35145C10.8812 7.24995 10.8677 7.14802 10.8343 7.0519Z" fill="#8E5730"/>
        <path d="M20.3466 9.8038C19.9856 9.44137 19.5752 9.13171 19.1277 8.88397C19.0422 8.83487 18.948 8.80308 18.8502 8.79041C18.7525 8.77774 18.6532 8.78444 18.5581 8.81014C18.463 8.83583 18.3738 8.88001 18.2958 8.94015C18.2177 9.0003 18.1523 9.07523 18.1031 9.16067C18.054 9.24611 18.0223 9.34038 18.0096 9.43811C17.9969 9.53584 18.0036 9.6351 18.0293 9.73024C18.055 9.82537 18.0992 9.91452 18.1593 9.99258C18.2195 10.0706 18.2944 10.1361 18.3798 10.1852C19.0418 10.5515 19.5884 11.0954 19.9578 11.7556C20.0569 11.9282 20.2206 12.0543 20.4127 12.1062C20.6049 12.1581 20.8097 12.1315 20.9823 12.0323C21.1548 11.9332 21.2809 11.7695 21.3328 11.5774C21.3847 11.3852 21.3581 11.1804 21.259 11.0078C21.0101 10.5675 20.7032 10.1625 20.3466 9.8038Z" fill="#8E5730"/>
        <path d="M23.9736 10.4022C23.7122 9.47758 23.2181 8.63537 22.5387 7.95592C21.8592 7.27648 21.017 6.78245 20.0924 6.52099C19.8941 6.46447 19.6814 6.48904 19.5012 6.58932C19.321 6.68959 19.188 6.85735 19.1314 7.05569C19.0749 7.25402 19.0995 7.46669 19.1998 7.64691C19.3 7.82712 19.4678 7.96012 19.6661 8.01664C20.3415 8.21253 20.958 8.57216 21.4609 9.0636C21.9389 9.56301 22.2879 10.1713 22.478 10.836C22.5366 11.0253 22.6679 11.1837 22.8432 11.2762C23.0185 11.3688 23.2233 11.3879 23.4127 11.3295C23.5117 11.3078 23.6053 11.2661 23.6877 11.2071C23.7701 11.148 23.8396 11.0729 23.8921 10.9862C23.9445 10.8994 23.9788 10.8029 23.9928 10.7026C24.0068 10.6022 24.0003 10.5 23.9736 10.4022Z" fill="#8E5730"/>
        <path d="M16.1214 22.5996H13.8779C13.7788 22.5996 13.6837 22.639 13.6135 22.7091C13.5434 22.7792 13.504 22.8744 13.504 22.9735C13.504 23.3702 13.6616 23.7506 13.9421 24.0311C14.2226 24.3116 14.603 24.4692 14.9997 24.4692C15.3964 24.4692 15.7768 24.3116 16.0573 24.0311C16.3378 23.7506 16.4953 23.3702 16.4953 22.9735C16.4953 22.8744 16.4559 22.7792 16.3858 22.7091C16.3157 22.639 16.2206 22.5996 16.1214 22.5996Z" fill="#8E5730"/>
        <path d="M20.2345 20.3556C20.0362 20.3556 19.8459 20.2768 19.7057 20.1366C19.5655 19.9963 19.4867 19.8061 19.4867 19.6078V16.2425C19.4867 13.6625 17.8639 11.5163 15.7475 11.105V9.88601C15.7475 9.68767 15.6687 9.49746 15.5285 9.35722C15.3883 9.21697 15.198 9.13818 14.9997 9.13818C14.8014 9.13818 14.6112 9.21697 14.4709 9.35722C14.3307 9.49746 14.2519 9.68767 14.2519 9.88601V11.105C12.1355 11.5163 10.5127 13.6625 10.5127 16.2425V19.6078C10.5127 19.8061 10.434 19.9963 10.2937 20.1366C10.1535 20.2768 9.96325 20.3556 9.76492 20.3556C9.56658 20.3556 9.37637 20.4344 9.23612 20.5746C9.09588 20.7149 9.01709 20.9051 9.01709 21.1034C9.01709 21.3018 9.09588 21.492 9.23612 21.6322C9.37637 21.7725 9.56658 21.8512 9.76492 21.8512H20.2345C20.4328 21.8512 20.623 21.7725 20.7633 21.6322C20.9035 21.492 20.9823 21.3018 20.9823 21.1034C20.9823 20.9051 20.9035 20.7149 20.7633 20.5746C20.623 20.4344 20.4328 20.3556 20.2345 20.3556Z" fill="#8E5730"/>
    </g>
    <defs>
        <clipPath id="clip0_505_443">
            <rect width="30" height="30" fill="white"/>
        </clipPath>
    </defs>
</svg>
