<svg width="30" height="30" viewBox="0 0 30 30" fill="none" xmlns="http://www.w3.org/2000/svg">
    <g clip-path="url(#clip0_254_966)">
        <circle cx="15" cy="15" r="15" fill="#CA0014"/>
        <path d="M9.66667 22C9.47778 22 9.31947 21.9313 9.19178 21.7939C9.06391 21.6566 9 21.4864 9 21.2832C9 21.0803 9.06391 20.9115 9.19178 20.7769C9.31947 20.6423 9.47778 20.575 9.66667 20.575H10.3556L11.7019 12.0212C11.7908 11.7204 11.95 11.475 12.1796 11.285C12.4093 11.095 12.6722 11 12.9685 11L16.9705 11C17.2668 11 17.5297 11.095 17.7594 11.285C17.989 11.475 18.1483 11.7204 18.2371 12.0212L19.6444 20.575H20.3333C20.5222 20.575 20.6806 20.6438 20.8084 20.7812C20.9361 20.9185 21 21.0886 21 21.2918C21 21.4948 20.9361 21.6636 20.8084 21.7981C20.6806 21.9327 20.5222 22 20.3333 22H9.66667Z" fill="white"/>
        <path d="M14 8.70874V7.06588C14 6.82303 14.0965 6.61941 14.2893 6.45503C14.482 6.29084 14.7209 6.20874 15.006 6.20874C15.2909 6.20874 15.5278 6.29084 15.7167 6.45503C15.9055 6.61941 16 6.82303 16 7.06588V8.70874C16 8.9516 15.9035 9.15514 15.7107 9.31931C15.518 9.48371 15.2791 9.56588 14.994 9.56588C14.7091 9.56588 14.4722 9.48371 14.2833 9.31931C14.0945 9.15514 14 8.9516 14 8.70874Z" fill="white"/>
        <path d="M20.0336 10.5756L21.1953 9.41395C21.367 9.24223 21.4428 9.03004 21.4226 8.77742C21.4025 8.52509 21.2916 8.29813 21.09 8.09651C20.8886 7.89508 20.663 7.78559 20.4133 7.76814C20.1636 7.75083 19.9528 7.82801 19.7811 7.99974L18.6194 9.16141C18.4477 9.33314 18.3719 9.54528 18.3922 9.79774C18.4122 10.0502 18.523 10.2772 18.7246 10.4789C18.9261 10.6803 19.1517 10.7897 19.4015 10.807C19.6511 10.8245 19.8619 10.7474 20.0336 10.5756Z" fill="white"/>
        <path d="M9.96668 10.5756L8.80501 9.41395C8.63328 9.24223 8.55751 9.03004 8.57765 8.77742C8.59779 8.52509 8.70864 8.29813 8.91026 8.09651C9.11169 7.89508 9.33728 7.78559 9.58693 7.76814C9.83672 7.75083 10.0475 7.82801 10.2192 7.99974L11.3809 9.16141C11.5526 9.33314 11.6283 9.54528 11.608 9.79774C11.5881 10.0502 11.4773 10.2772 11.2756 10.4789C11.0742 10.6803 10.8486 10.7897 10.5988 10.807C10.3491 10.8245 10.1384 10.7474 9.96668 10.5756Z" fill="white"/>
        <path d="M20.9799 15L22.6228 15C22.8656 15 23.0693 14.9035 23.2336 14.7107C23.3978 14.518 23.4799 14.2791 23.4799 13.994C23.4799 13.7091 23.3978 13.4722 23.2336 13.2833C23.0693 13.0945 22.8656 13 22.6228 13L20.9799 13C20.7371 13 20.5335 13.0965 20.3693 13.2893C20.2049 13.482 20.1228 13.7209 20.1228 14.006C20.1228 14.2909 20.2049 14.5278 20.3693 14.7167C20.5335 14.9055 20.7371 15 20.9799 15Z" fill="white"/>
        <path d="M9.02036 15L7.3775 15C7.13464 15 6.93102 14.9035 6.76664 14.7107C6.60245 14.518 6.52036 14.2791 6.52036 13.994C6.52036 13.7091 6.60245 13.4722 6.76664 13.2833C6.93102 13.0945 7.13464 13 7.3775 13L9.02036 13C9.26321 13 9.46676 13.0965 9.63093 13.2893C9.79533 13.482 9.8775 13.7209 9.8775 14.006C9.8775 14.2909 9.79533 14.5278 9.63093 14.7167C9.46676 14.9055 9.26321 15 9.02036 15Z" fill="white"/>
    </g>
    <defs>
        <clipPath id="clip0_254_966">
            <rect width="30" height="30" fill="white"/>
        </clipPath>
    </defs>
</svg>
