<svg width="30" height="30" viewBox="0 0 30 30" fill="none" xmlns="http://www.w3.org/2000/svg">
    <g clip-path="url(#clip0_505_127)">
        <circle cx="15" cy="15" r="15" fill="#F86700"/>
        <path fill-rule="evenodd" clip-rule="evenodd" d="M15 5C16.0355 5 16.875 5.86655 16.875 6.93548V15.3226C16.875 16.3915 16.0355 17.2581 15 17.2581C13.9645 17.2581 13.125 16.3915 13.125 15.3226V6.93548C13.125 5.86655 13.9645 5 15 5ZM17.5 22.4194C17.5 23.8446 16.3807 25 15 25C13.6193 25 12.5 23.8446 12.5 22.4194C12.5 20.9941 13.6193 19.8387 15 19.8387C16.3807 19.8387 17.5 20.9941 17.5 22.4194Z" fill="white"/>
    </g>
    <defs>
        <clipPath id="clip0_505_127">
            <rect width="30" height="30" fill="white"/>
        </clipPath>
    </defs>
</svg>
